<svg width="142" height="22" viewBox="0 0 142 22" fill="none" xmlns="http://www.w3.org/2000/svg">
<path d="M19.6179 7.10629C19.9766 6.52107 20.1765 5.84618 20.1967 5.15277C20.217 4.45937 20.0567 3.77315 19.7329 3.16645C19.409 2.55975 18.9336 2.05506 18.3566 1.70559C17.7797 1.35613 17.1227 1.17483 16.4549 1.18081H0C4.54034 1.32641 8.57485 2.84577 11.3234 5.16278L1.57236 20.5336H11.1101L14.6266 14.9816L19.6179 7.10629Z" fill="url(#paint0_linear_6722_4290)"/>
<path d="M20.1969 5.04244C20.1969 4.53317 20.1 4.02894 19.9116 3.55876C19.7233 3.08858 19.4472 2.66174 19.0994 2.30282C18.7516 1.94389 18.3389 1.65997 17.8851 1.4674C17.4312 1.27483 16.9452 1.17741 16.4549 1.18075H0C8.36764 1.45296 15.041 6.37187 15.041 12.405C15.0386 13.2815 14.8986 14.1518 14.6266 14.9815L19.624 7.10623C20.0022 6.48987 20.2011 5.77329 20.1969 5.04244Z" fill="url(#paint1_linear_6722_4290)"/>
<path d="M27.4922 10.6074L28.4612 12.38L25.7249 20.6478H27.8518L31.1733 10.6074H27.4922Z" fill="white"/>
<path d="M34.4635 10.6074H36.4199L38.7784 16.9887L40.8993 10.6074H42.9957L39.6743 20.6478H37.846L35.4082 14.064L33.2325 20.6478H31.1421L34.4635 10.6074Z" fill="white"/>
<path d="M47.8713 20.8184C47.2494 20.8289 46.6306 20.7261 46.0429 20.5145C45.5295 20.3247 45.0603 20.0249 44.6656 19.6346C44.2821 19.2531 43.9917 18.7822 43.8185 18.2608C43.6252 17.6775 43.5546 17.058 43.6113 16.4439C43.6612 15.6468 43.8687 14.8688 44.2207 14.1586C44.5782 13.4475 45.0502 12.8051 45.6163 12.2594C46.188 11.7033 46.8504 11.2574 47.5726 10.9426C48.3296 10.5996 49.148 10.427 49.9738 10.4362C50.7775 10.4032 51.5744 10.6003 52.2775 11.0059C52.8753 11.386 53.3637 11.9261 53.6914 12.5696L51.8631 13.8357C51.6299 13.4432 51.3256 13.1014 50.9672 12.8292C50.5529 12.5631 50.0702 12.435 49.5838 12.462C49.135 12.4643 48.6921 12.568 48.2857 12.7658C47.4099 13.1965 46.7039 13.9276 46.2867 14.836C46.0622 15.3092 45.9277 15.8229 45.8906 16.349C45.8491 16.6767 45.8677 17.0097 45.9454 17.3302C46.032 17.6163 46.18 17.8782 46.3781 18.0962C46.5772 18.3142 46.8209 18.483 47.0912 18.59C47.3897 18.7127 47.7087 18.773 48.0297 18.7673C48.45 18.7741 48.8664 18.6832 49.2486 18.5014C49.6387 18.301 50.0066 18.0569 50.3456 17.7734L51.6193 19.2674C51.1259 19.7216 50.5716 20.099 49.9738 20.3879C49.3115 20.6888 48.5939 20.8358 47.8713 20.8184Z" fill="white"/>
<path d="M97.5656 10.6079H101.32C101.812 10.5954 102.303 10.6616 102.776 10.8042C103.135 10.9074 103.469 11.0863 103.758 11.3296C103.997 11.5424 104.182 11.8146 104.294 12.121C104.399 12.4271 104.44 12.7529 104.416 13.0769C104.391 13.6904 104.148 14.2726 103.733 14.7102C103.301 15.1447 102.757 15.4394 102.167 15.5585C102.534 15.7294 102.853 15.9953 103.093 16.3308C103.327 16.7055 103.426 17.1538 103.374 17.597C103.342 18.0297 103.217 18.4496 103.008 18.8251C102.787 19.209 102.49 19.5392 102.136 19.7937C101.727 20.0866 101.271 20.301 100.79 20.4268C100.203 20.5847 99.5979 20.6593 98.9917 20.6483H94.2441L97.5656 10.6079ZM99.4549 18.7112C99.9062 18.7353 100.354 18.6184 100.741 18.3756C100.894 18.2768 101.022 18.1413 101.114 17.9805C101.206 17.8197 101.26 17.6382 101.271 17.4514C101.287 17.32 101.269 17.1866 101.22 17.0645C101.171 16.9423 101.092 16.8356 100.991 16.755C100.698 16.5649 100.354 16.4763 100.009 16.5018H97.6753L96.9501 18.7112H99.4549ZM100.436 14.6659C100.888 14.6903 101.338 14.5898 101.74 14.3747C101.896 14.2793 102.026 14.1445 102.117 13.9828C102.209 13.8212 102.26 13.638 102.264 13.4504C102.273 13.3295 102.252 13.2083 102.205 13.0977C102.157 12.9872 102.083 12.8908 101.99 12.8173C101.696 12.6134 101.343 12.5217 100.991 12.5578H98.9856L98.2969 14.6785L100.436 14.6659Z" fill="white"/>
<path d="M109.467 20.806C108.961 20.8146 108.457 20.7377 107.974 20.5781C107.571 20.4515 107.199 20.2355 106.883 19.945C106.589 19.6494 106.367 19.2846 106.237 18.8815C106.097 18.4172 106.05 17.9283 106.097 17.4444C106.142 16.8965 106.259 16.3576 106.444 15.8428L108.163 10.6326H110.308L108.48 16.0137C108.421 16.184 108.37 16.3572 108.328 16.5328C108.286 16.7223 108.26 16.9149 108.248 17.1089C108.222 17.323 108.238 17.5406 108.297 17.7477C108.356 17.9548 108.455 18.1469 108.59 18.3117C108.75 18.4736 108.941 18.598 109.152 18.6766C109.362 18.7553 109.586 18.7862 109.809 18.7675C110.405 18.7767 110.982 18.5504 111.424 18.1344C111.931 17.6059 112.303 16.9526 112.502 16.2353L114.373 10.5693H116.5L114.574 16.5898C114.252 17.7149 113.665 18.7394 112.868 19.5715C112.438 19.9852 111.93 20.3001 111.375 20.4958C110.761 20.7137 110.116 20.8187 109.467 20.806Z" fill="white"/>
<path d="M125.441 10.6074H127.562L124.936 18.641H129.756L129.086 20.6478H122.138L125.441 10.6074Z" fill="white"/>
<path d="M73.6388 16.5583L74.2909 14.6211H69.7993H67.6845L65.6917 20.6479H72.9806L73.6388 18.6854H68.4463L69.1472 16.5583H73.6388Z" fill="white"/>
<path d="M69.0134 10.6074L68.3613 12.5763H70.47H70.4761H75.5832L76.2353 10.6074H69.0134Z" fill="white"/>
<path d="M141.147 11.8991C140.755 11.4914 140.277 11.1837 139.751 11.0001C139.013 10.7352 138.234 10.6129 137.453 10.6393H132.858L133.955 12.6334H137.124C137.581 12.6197 138.037 12.6883 138.471 12.836C138.783 12.9414 139.065 13.1239 139.294 13.3678C139.474 13.584 139.607 13.8376 139.685 14.1117C139.762 14.3857 139.783 14.6738 139.745 14.9568C139.711 15.4349 139.593 15.9026 139.398 16.3368C139.2 16.7638 138.928 17.1483 138.593 17.47C138.167 17.8648 137.667 18.1643 137.124 18.35C136.535 18.5548 135.917 18.6575 135.296 18.6538H134.077L135.418 14.6212H133.291L131.298 20.648H134.888C135.898 20.6664 136.904 20.5058 137.862 20.1732C138.69 19.8838 139.45 19.4156 140.092 18.7994C140.637 18.2822 141.083 17.6638 141.409 16.9762C141.725 16.3068 141.913 15.5802 141.963 14.8365C142.036 14.3147 142 13.7829 141.859 13.2765C141.719 12.77 141.476 12.3005 141.147 11.8991Z" fill="white"/>
<path d="M86.9077 11.8991C86.5156 11.4914 86.0379 11.1837 85.512 11.0001C84.7738 10.7352 83.9951 10.6129 83.2144 10.6393H78.6193L79.7162 12.6334H82.8853C83.3442 12.6192 83.802 12.6878 84.2383 12.836C84.55 12.9414 84.8323 13.1239 85.0611 13.3678C85.2408 13.584 85.374 13.8376 85.4518 14.1117C85.5295 14.3857 85.5501 14.6738 85.512 14.9568C85.4781 15.4349 85.3604 15.9026 85.1647 16.3368C84.9676 16.7638 84.6946 17.1483 84.3602 17.47C83.932 17.8655 83.43 18.1651 82.8853 18.35C82.2961 18.5548 81.6784 18.6575 81.057 18.6538H79.8381L81.1789 14.6212H79.052L77.0591 20.648H80.6487C81.6588 20.6664 82.6646 20.5058 83.6228 20.1732C84.4505 19.8822 85.2104 19.4142 85.8533 18.7994C86.3957 18.2804 86.8419 17.6624 87.1697 16.9762C87.4857 16.3068 87.674 15.5802 87.7243 14.8365C87.7966 14.3147 87.7611 13.7829 87.6203 13.2765C87.4795 12.77 87.2366 12.3005 86.9077 11.8991Z" fill="white"/>
<path d="M63.8759 11.6331C63.5521 11.2789 63.1444 11.0191 62.6936 10.8798C62.1014 10.6933 61.4839 10.6078 60.8653 10.6265H55.874L56.7089 12.6207H60.6215C60.8664 12.5903 61.1146 12.6116 61.3513 12.6834C61.588 12.7552 61.8083 12.876 61.9989 13.0385C62.0935 13.1472 62.1643 13.276 62.2064 13.4159C62.2485 13.5558 62.2609 13.7035 62.2426 13.8488C62.2213 14.2395 62.0527 14.6056 61.7734 14.8681C61.5268 15.0984 61.2329 15.2672 60.9141 15.3619C60.5431 15.4692 60.1595 15.5225 59.7744 15.5201H55.746L54.0396 20.6733H56.1665L57.2269 17.4636H58.8176L60.0791 20.6733H62.5169L61.1213 17.2484C61.9845 17.0656 62.7857 16.6483 63.4432 16.0392C63.7479 15.7432 63.9942 15.3884 64.1685 14.9947C64.3563 14.5746 64.4659 14.1214 64.4915 13.6589C64.5362 13.2951 64.5044 12.9255 64.3981 12.5757C64.2918 12.226 64.1137 11.9043 63.8759 11.6331Z" fill="white"/>
<path d="M90.4473 10.6074L91.4163 12.38L88.6799 20.6478H90.8069L94.1283 10.6074H90.4473Z" fill="white"/>
<path d="M118.658 10.6074L119.621 12.38L116.891 20.6478H119.018L122.339 10.6074H118.658Z" fill="white"/>
<defs>
<linearGradient id="paint0_linear_6722_4290" x1="14.1512" y1="-3.43423" x2="-1.29821" y2="21.5298" gradientUnits="userSpaceOnUse">
<stop stop-color="#4E61A3"/>
<stop offset="1" stop-color="#00EC9C"/>
</linearGradient>
<linearGradient id="paint1_linear_6722_4290" x1="-54.7706" y1="8.08114" x2="-54.6121" y2="8.08114" gradientUnits="userSpaceOnUse">
<stop stop-color="#00FFA3"/>
<stop offset="0.46" stop-color="#00F9A1"/>
<stop offset="1" stop-color="#01EB9C"/>
</linearGradient>
</defs>
</svg>
